<svg xmlns="http://www.w3.org/2000/svg" viewBox="0 0 128 128" role="img" aria-label="FluxCell icon"><defs><filter id="depth" x="-45%" y="-45%" width="190%" height="190%"><feDropShadow dx="0" dy="8" stdDeviation="5" flood-color="#221a16" flood-opacity=".22"/><feDropShadow dx="0" dy="1" stdDeviation="1" flood-color="#fff8ef" flood-opacity=".34"/></filter><linearGradient id="paper" x1="20" y1="14" x2="108" y2="116" gradientUnits="userSpaceOnUse"><stop stop-color="#fff8ee"/><stop offset="1" stop-color="#dfd1bf"/></linearGradient><linearGradient id="ink" x1="18" y1="14" x2="108" y2="116" gradientUnits="userSpaceOnUse"><stop stop-color="#31313b"/><stop offset="1" stop-color="#080911"/></linearGradient><linearGradient id="coral" x1="18" y1="16" x2="110" y2="114" gradientUnits="userSpaceOnUse"><stop stop-color="#eda891"/><stop offset=".55" stop-color="#ce735b"/><stop offset="1" stop-color="#884a3c"/></linearGradient><linearGradient id="rose" x1="18" y1="16" x2="108" y2="116" gradientUnits="userSpaceOnUse"><stop stop-color="#e4a4ad"/><stop offset=".55" stop-color="#ba6c84"/><stop offset="1" stop-color="#6f425b"/></linearGradient><linearGradient id="teal" x1="16" y1="16" x2="108" y2="112" gradientUnits="userSpaceOnUse"><stop stop-color="#83aaa0"/><stop offset=".55" stop-color="#4f827a"/><stop offset="1" stop-color="#244d52"/></linearGradient><linearGradient id="blue" x1="18" y1="16" x2="108" y2="112" gradientUnits="userSpaceOnUse"><stop stop-color="#7891b7"/><stop offset=".56" stop-color="#496c9a"/><stop offset="1" stop-color="#1e2d55"/></linearGradient><linearGradient id="gold" x1="20" y1="16" x2="108" y2="112" gradientUnits="userSpaceOnUse"><stop stop-color="#f0c763"/><stop offset=".55" stop-color="#be8434"/><stop offset="1" stop-color="#6e421e"/></linearGradient></defs><g filter="url(#depth)"><rect x="27" y="33" width="31" height="62" rx="12" fill="url(#teal)"/><rect x="70" y="33" width="31" height="62" rx="12" fill="url(#coral)"/><rect x="37" y="45" width="11" height="38" rx="5" fill="#fff8ee" opacity=".82"/><rect x="81" y="45" width="11" height="38" rx="5" fill="#fff8ee" opacity=".82"/><path d="M52 47c9-11 21-11 30 0M52 82c9 11 21 11 30 0" fill="none" stroke="url(#gold)" stroke-width="8" stroke-linecap="round"/><path d="M64 45c-10 8-10 30 0 38 10-8 10-30 0-38z" fill="none" stroke="#fff8ee" stroke-width="7" stroke-linecap="round" stroke-linejoin="round" opacity=".9"/><circle cx="64" cy="64" r="6" fill="url(#gold)"/></g></svg>