<svg xmlns="http://www.w3.org/2000/svg" viewBox="0 0 128 128" role="img" aria-label="FluxCell icon"><defs><filter id="depth" x="-40%" y="-40%" width="180%" height="180%"><feDropShadow dx="0" dy="8" stdDeviation="5" flood-color="#2b2118" flood-opacity=".22"/></filter><linearGradient id="soft" x1="18" x2="110" y1="18" y2="112" gradientUnits="userSpaceOnUse"><stop stop-color="#fffaf2"/><stop offset="1" stop-color="#e5d8ca"/></linearGradient><linearGradient id="warm" x1="20" x2="108" y1="20" y2="108" gradientUnits="userSpaceOnUse"><stop stop-color="#ddaaa2"/><stop offset="1" stop-color="#ad715e"/></linearGradient><linearGradient id="cool" x1="20" x2="108" y1="20" y2="108" gradientUnits="userSpaceOnUse"><stop stop-color="#7fa9a2"/><stop offset="1" stop-color="#456f77"/></linearGradient></defs><g filter="url(#depth)"><path d="M22 29h36l15 34-15 34H22z" fill="#4d817f"/><path d="M70 29h36v68H70L55 63z" fill="#b87963"/><path d="M34 43h21l9 20-9 20H34z" fill="#fff7ea" opacity=".92"/><path d="M93 43H76l-8 20 8 20h17z" fill="#fff7ea" opacity=".75"/><path d="M67 25 45 66h17l-5 38 28-49H67z" fill="#b58a3e"/><path d="M67 25 54 57h18l-15 47 28-49H67z" fill="#241f1b" opacity=".82"/></g></svg>